<?xml version="1.0" standalone="no"?>
<!DOCTYPE svg PUBLIC "-//W3C//DTD SVG 20010904//EN"
 "http://www.w3.org/TR/2001/REC-SVG-20010904/DTD/svg10.dtd">
<svg version="1.0" xmlns="http://www.w3.org/2000/svg"
 width="1700.000000pt" height="1700.000000pt" viewBox="0 0 1700.000000 1700.000000"
 preserveAspectRatio="xMidYMid meet">

<g transform="translate(0.000000,1700.000000) scale(0.100000,-0.100000)"
fill="#000000" stroke="none">
<path d="M8335 16614 c-846 -18 -1604 -120 -2210 -299 -1676 -495 -3224 -1570
-4275 -2970 -307 -409 -545 -813 -790 -1340 -524 -1125 -723 -1836 -780 -2792
-13 -221 -13 -949 0 -1214 63 -1281 247 -2074 679 -2938 314 -626 825 -1391
1280 -1916 239 -275 604 -617 952 -891 270 -213 805 -591 1123 -793 1036 -661
1949 -940 3361 -1030 524 -34 1205 -43 1515 -22 572 40 1023 130 1610 323
1061 348 1823 732 2580 1299 340 255 548 437 876 764 326 326 554 591 820 951
566 769 1014 1673 1279 2584 138 474 187 780 237 1475 17 242 18 1276 0 1520
-40 573 -94 954 -178 1260 -476 1733 -1587 3343 -3061 4437 -531 394 -1040
673 -1846 1012 -584 246 -1012 387 -1376 456 -471 88 -1168 136 -1796 124z
m715 -904 c940 -126 1500 -255 2057 -476 1228 -486 2504 -1469 3319 -2557 753
-1005 1208 -2325 1304 -3787 14 -216 14 -770 0 -985 -71 -1077 -340 -2021
-804 -2830 -197 -342 -277 -422 -458 -459 -62 -13 -148 -16 -443 -16 l-365 0
0 108 c0 59 -16 955 -35 1992 -19 1037 -48 2859 -65 4050 -17 1191 -34 2188
-36 2215 -5 46 -10 53 -62 95 -31 25 -142 116 -246 203 -263 218 -343 256
-622 292 -238 30 -497 36 -2019 45 -1698 10 -2300 23 -2640 61 -127 14 -128
14 -120 55 16 90 329 895 593 1527 207 497 216 517 242 517 14 0 194 -22 400
-50z m-1370 1 c33 -62 -26 -282 -158 -592 -131 -308 -475 -1032 -619 -1301
l-115 -218 -911 0 c-1351 0 -1563 -15 -1793 -125 -98 -47 -187 -113 -452 -336
l-230 -192 -5 -2986 c-3 -1643 -10 -3193 -16 -3446 -28 -1213 -52 -1739 -84
-1804 -26 -53 -221 -135 -428 -180 -126 -27 -317 -45 -403 -38 -182 16 -273
119 -537 617 -238 448 -398 829 -512 1220 -150 511 -226 960 -268 1585 -16
231 -16 936 0 1170 65 987 265 1725 726 2670 280 575 732 1172 1370 1810 617
618 1209 1068 1745 1327 743 359 2189 817 2642 836 28 2 40 -3 48 -17z m4280
-3140 c446 -37 672 -77 729 -130 81 -76 119 -544 141 -1746 5 -291 10 -1798
10 -3347 l0 -2818 -1321 0 -1321 0 5 3033 c3 1676 10 3238 16 3492 19 829 40
1319 59 1415 6 27 16 39 42 52 41 20 190 45 345 58 147 11 1124 5 1295 -9z
m-6046 -21 c307 -11 563 -23 567 -26 13 -7 12 -8001 -1 -8009 -5 -3 -343 -10
-752 -15 -409 -6 -909 -14 -1113 -20 -203 -5 -389 -10 -412 -10 l-43 0 0 2778
c0 3099 12 4242 51 4947 12 227 23 315 41 326 81 51 742 62 1662 29z m2961 0
c275 -11 500 -22 502 -24 2 -1 7 -437 13 -967 5 -530 12 -1191 14 -1469 3
-278 8 -829 11 -1225 3 -396 7 -943 10 -1215 3 -272 8 -1099 11 -1837 l7
-1343 -29 0 c-16 0 -193 5 -394 10 -201 6 -682 14 -1069 20 -387 5 -705 11
-707 13 -2 1 -13 963 -24 2137 -23 2280 -23 4543 -1 4990 15 288 38 561 55
654 22 110 38 141 93 176 75 48 159 70 358 93 95 12 720 4 1150 -13z m4615
-8941 c207 -10 328 -23 343 -39 47 -46 -290 -369 -738 -705 -781 -586 -1358
-912 -2090 -1180 -611 -223 -1206 -348 -1950 -407 -215 -17 -970 -17 -1180 0
-1350 109 -2537 504 -3560 1185 -305 203 -460 326 -904 721 l-305 271 90 7
c49 4 703 19 1454 33 751 14 1655 32 2010 40 3763 84 6095 109 6830 74z"/>
</g>
</svg>
